<svg xmlns="http://www.w3.org/2000/svg" version="1.1" xmlns:xlink="http://www.w3.org/1999/xlink" xmlns:svgjs="http://svgjs.dev/svgjs" width="1000" height="750" viewBox="0 0 1000 750"><rect width="1000" height="750" fill="#fce44d"></rect><g transform="matrix(0.834,0,0,0.834,83.16604916897501,107.0861214640264)"><svg viewBox="0 0 384 247" data-background-color="#fce44d" preserveAspectRatio="xMidYMid meet" height="643" width="1000" xmlns="http://www.w3.org/2000/svg" xmlns:xlink="http://www.w3.org/1999/xlink"><g id="tight-bounds" transform="matrix(1,0,0,1,-0.07645429362878531,-0.10000522433907122)"><svg viewBox="0 0 384.15290858725757 247.2" height="247.2" width="384.15290858725757"><g><svg viewBox="0 0 384.15290858725757 247.2" height="247.2" width="384.15290858725757"><g><svg viewBox="0 0 384.15290858725757 247.2" height="247.2" width="384.15290858725757"><g id="textblocktransform"><svg viewBox="0 0 384.15290858725757 247.2" height="247.2" width="384.15290858725757" id="textblock"><g><svg viewBox="0 0 384.15290858725757 247.2" height="247.2" width="384.15290858725757"><g transform="matrix(1,0,0,1,0,0)"><svg width="384.15290858725757" viewBox="2.0999999046325684 -35.5 56.10000228881836 36.099998474121094" height="247.2" data-palette-color="#374151"><path d="M12.45 0.6L12.45 0.6Q8.95 0.6 5.75-1.4L5.75-1.4Q4.15-2.4 3.13-4.2 2.1-6 2.1-8.35L2.1-8.35Q2.1-12.8 5.05-15.6 8-18.4 12.15-18.85L12.15-18.85Q9.35-19.6 7.68-21.45 6-23.3 6-26.15L6-26.15Q6-30.45 9.38-32.98 12.75-35.5 17.1-35.5 21.45-35.5 24.35-33.65 27.25-31.8 27.25-28.65L27.25-28.65Q27.25-27.55 26.88-26.5 26.5-25.45 26.1-25L26.1-25 25.75-24.5Q24.15-24.5 22.23-25.05 20.3-25.6 19.4-26.45L19.4-26.45 20-31.6Q19.25-32.35 17.48-32.35 15.7-32.35 14.68-30.53 13.65-28.7 13.65-26.35 13.65-24 14.2-22.8 14.75-21.6 15.75-20.95L15.75-20.95Q17.3-19.95 19.4-19.55L19.4-19.55 19-16.8Q15.4-16.8 12.75-14.68 10.1-12.55 10.1-9.05L10.1-9.05Q10.1-6.85 11.53-5.43 12.95-4 15.2-4L15.2-4Q19.3-4 23.6-8.15L23.6-8.15 25.6-6.3Q19.8 0.6 12.45 0.6ZM28.9 0.2L28.9 0.2 27.95 0.2Q28.15-2.05 30.6-13.03 33.05-24 33.65-29.45L33.65-29.45Q33.65-30.25 33.12-31.38 32.6-32.5 32.05-33.2L32.05-33.2 31.55-33.9 31.7-34.65Q34.5-35.5 41.35-35.5L41.35-35.5Q42-34.3 42-33.15 42-32 41.8-30.3L41.8-30.3Q48.05-35.5 52-35.5L52-35.5Q54.6-35.5 56.2-33.8 57.8-32.1 57.8-29.05 57.8-26 55.67-17.43 53.55-8.85 53.55-5.45L53.55-5.45Q53.55-4 54.05-4L54.05-4Q54.5-4 56.55-5L56.55-5 57.2-5.3 58.2-3.45Q56.1-1.65 53.85-0.53 51.6 0.6 49.77 0.6 47.95 0.6 46.8-0.73 45.65-2.05 45.65-4.33 45.65-6.6 47.72-15.65 49.8-24.7 49.8-27.2 49.8-29.7 47.85-29.7L47.85-29.7Q44.9-29.7 41.15-26.75L41.15-26.75Q40.6-24.1 39.1-17.9L39.1-17.9Q35.8-4.25 35.8-0.8L35.8-0.8Q33.85 0.2 28.9 0.2Z" opacity="1" transform="matrix(1,0,0,1,0,0)" fill="#374151" class="undefined-text-0" data-fill-palette-color="primary" id="text-0"></path></svg></g></svg></g></svg></g></svg></g><g></g></svg></g><defs></defs></svg><rect width="384.15290858725757" height="247.2" fill="none" stroke="none" visibility="hidden"></rect></g></svg></g></svg>